<?xml version="1.0" encoding="utf-8"?>
<!-- Generator: Adobe Illustrator 27.9.5, SVG Export Plug-In . SVG Version: 9.03 Build 54986)  -->
<svg version="1.1" id="Calque_1" xmlns="http://www.w3.org/2000/svg" xmlns:xlink="http://www.w3.org/1999/xlink" x="0px" y="0px"
	 viewBox="0 0 459.1 925" style="enable-background:new 0 0 459.1 925;" xml:space="preserve">
<style type="text/css">
	.st0{fill:#0A0C0D;}
	.st1{fill:#D84A4A;stroke:#141617;stroke-width:1.233;stroke-linecap:round;stroke-linejoin:round;stroke-miterlimit:10;}
	.st2{fill:#FF6969;stroke:#141617;stroke-width:1.233;stroke-linecap:round;stroke-linejoin:round;stroke-miterlimit:10;}
	.st3{fill:#F7EFE4;}
	.st4{fill:#DECCBB;}
</style>
<g>
	<path class="st0" d="M0.6,794.6c0,0,42.5,65.6,158.1,65.3h167.5c0,0,100.2-5.4,132.2-59.8l-196.9-31.5
		C261.5,768.6,59.6,825.6,0.6,794.6z"/>
	<g>
		<path class="st1" d="M458.4,800.1c-43.4,46.7-177.6-10.4-177.6-10.4l-31.1-64.5h20.4C367.3,776.8,458.4,800.1,458.4,800.1z"/>
		<path class="st2" d="M205.4,725.2c-7.3,4.6-124.3,78.3-204.8,69.4v0c72.9,39.2,238.3,24.2,280.3-4.9l-31.1-64.5H205.4z"/>
	</g>
	<g>
		<polygon class="st2" points="155.1,831.7 155.1,914.7 284.7,914.7 284.7,822.7 		"/>
		<polygon class="st3" points="155.1,831.7 155.1,914.7 284.7,914.7 284.7,822.7 		"/>
		<polygon class="st2" points="163.1,831.2 155.1,831.7 155.1,914.7 163.1,914.7 		"/>
		<polygon class="st2" points="277.4,823.2 277.4,914.7 284.7,914.7 284.7,822.7 		"/>
		<polygon class="st2" points="155.1,831.7 155.1,838.6 284.7,829.7 284.7,822.7 		"/>
		<polygon class="st2" points="155.1,855.9 155.1,860.6 284.7,851.7 284.7,846.9 		"/>
		<polygon class="st0" points="199.7,914.7 240.2,914.7 240.2,861 199.7,863.8 		"/>
		<polygon class="st4" points="335.2,831.7 335.2,914.7 284.7,914.7 284.7,822.7 		"/>
		<polygon class="st1" points="335.2,831.7 335.2,914.7 328.4,914.7 328.5,830.5 		"/>
		<polygon class="st1" points="284.7,822.7 284.7,914.7 291.8,914.7 291.8,824 		"/>
		<polygon class="st1" points="284.7,822.7 284.7,830.4 335.2,839.4 335.2,831.7 		"/>
		<polygon class="st1" points="335.2,854.4 335.2,859.1 284.7,852 284.7,847.3 		"/>
	</g>
	<g>
		<rect x="134.4" y="895.2" class="st1" width="4.8" height="25.2"/>
		<rect x="151.2" y="894.3" class="st1" width="4.8" height="25.2"/>
		<rect x="168" y="893.4" class="st1" width="4.8" height="25.2"/>
		<rect x="184.9" y="892.5" class="st1" width="4.8" height="25.2"/>
		<rect x="201.7" y="891.6" class="st1" width="4.8" height="25.2"/>
		<rect x="218.5" y="890.7" class="st1" width="4.8" height="25.2"/>
		<rect x="235.4" y="889.8" class="st1" width="4.8" height="25.2"/>
		<rect x="252.2" y="888.9" class="st1" width="4.8" height="25.2"/>
		<g>
			<rect x="269" y="888" class="st1" width="4.8" height="25.2"/>
			<rect x="285.5" y="889.4" class="st1" width="4.8" height="25.2"/>
			<rect x="302" y="890.7" class="st1" width="4.8" height="25.2"/>
			<rect x="318.5" y="892" class="st1" width="4.8" height="25.2"/>
			<rect x="334.9" y="893.4" class="st1" width="4.8" height="25.2"/>
			<rect x="351.4" y="894.7" class="st1" width="4.8" height="25.2"/>
		</g>
		<polygon class="st2" points="271.8,882.5 359.1,892.7 359.1,899.8 271.8,889.6 		"/>
		<polygon class="st2" points="271.8,907 359.1,917.2 359.1,924.4 271.8,914.1 		"/>
		<polygon class="st2" points="271.9,882.5 122.2,891.9 122.2,899 271.9,889.7 		"/>
		<polygon class="st2" points="271.9,907.1 122.2,916.4 122.2,923.5 271.9,914.2 		"/>
	</g>
	<path class="st0" d="M0.6,631.8c0,0,42.5,65.6,158.1,65.3h167.5c0,0,100.2-5.4,132.2-59.8l-196.9-31.5
		C261.5,605.8,59.6,662.8,0.6,631.8z"/>
	<g>
		<path class="st1" d="M458.4,637.3c-43.4,46.7-177.6-10.4-177.6-10.4l-31.1-64.5h20.4C367.3,614,458.4,637.3,458.4,637.3z"/>
		<path class="st2" d="M205.4,562.4c-7.3,4.6-124.3,78.3-204.8,69.4l0,0c72.9,39.2,238.3,24.2,280.3-4.9l-31.1-64.5H205.4z"/>
	</g>
	<g>
		<polygon class="st2" points="155.1,668.9 155.1,751.9 284.7,751.9 284.7,659.9 		"/>
		<polygon class="st3" points="155.1,668.9 155.1,751.9 284.7,751.9 284.7,659.9 		"/>
		<polygon class="st2" points="163.1,668.4 155.1,668.9 155.1,751.9 163.1,751.9 		"/>
		<polygon class="st2" points="277.4,660.4 277.4,751.9 284.7,751.9 284.7,659.9 		"/>
		<polygon class="st2" points="155.1,668.9 155.1,675.8 284.7,666.9 284.7,659.9 		"/>
		<polygon class="st2" points="155.1,693.1 155.1,697.8 284.7,688.9 284.7,684.1 		"/>
		<polygon class="st0" points="199.7,751.9 240.2,751.9 240.2,698.2 199.7,701 		"/>
		<polygon class="st4" points="335.2,668.9 335.2,751.9 284.7,751.9 284.7,659.9 		"/>
		<polygon class="st1" points="335.2,668.9 335.2,751.9 328.4,751.9 328.5,667.7 		"/>
		<polygon class="st1" points="284.7,659.9 284.7,751.9 291.8,751.9 291.8,661.2 		"/>
		<polygon class="st1" points="284.7,659.9 284.7,667.6 335.2,676.6 335.2,668.9 		"/>
		<polygon class="st1" points="335.2,691.6 335.2,696.3 284.7,689.2 284.7,684.5 		"/>
	</g>
	<g>
		<rect x="134.4" y="732.4" class="st1" width="4.8" height="25.2"/>
		<rect x="151.2" y="731.5" class="st1" width="4.8" height="25.2"/>
		<rect x="168" y="730.6" class="st1" width="4.8" height="25.2"/>
		<rect x="184.9" y="729.7" class="st1" width="4.8" height="25.2"/>
		<rect x="201.7" y="728.8" class="st1" width="4.8" height="25.2"/>
		<rect x="218.5" y="727.9" class="st1" width="4.8" height="25.2"/>
		<rect x="235.4" y="727" class="st1" width="4.8" height="25.2"/>
		<rect x="252.2" y="726.1" class="st1" width="4.8" height="25.2"/>
		<g>
			<rect x="269" y="725.2" class="st1" width="4.8" height="25.2"/>
			<rect x="285.5" y="726.6" class="st1" width="4.8" height="25.2"/>
			<rect x="302" y="727.9" class="st1" width="4.8" height="25.2"/>
			<rect x="318.5" y="729.2" class="st1" width="4.8" height="25.2"/>
			<rect x="334.9" y="730.6" class="st1" width="4.8" height="25.2"/>
			<rect x="351.4" y="731.9" class="st1" width="4.8" height="25.2"/>
		</g>
		<polygon class="st2" points="271.8,719.7 359.1,729.9 359.1,737 271.8,726.8 		"/>
		<polygon class="st2" points="271.8,744.2 359.1,754.4 359.1,761.6 271.8,751.3 		"/>
		<polygon class="st2" points="271.9,719.7 122.2,729.1 122.2,736.2 271.9,726.9 		"/>
		<polygon class="st2" points="271.9,744.3 122.2,753.6 122.2,760.7 271.9,751.4 		"/>
	</g>
	<path class="st0" d="M0.6,468.9c0,0,42.5,65.6,158.1,65.3h167.5c0,0,100.2-5.4,132.2-59.8l-196.9-31.5
		C261.5,442.9,59.6,499.9,0.6,468.9z"/>
	<g>
		<path class="st1" d="M458.4,474.3C415,521.1,280.9,464,280.9,464l-31.1-64.5h20.4C367.3,451,458.4,474.3,458.4,474.3z"/>
		<path class="st2" d="M205.4,399.4c-7.3,4.6-124.3,78.3-204.8,69.4l0,0C73.5,508,238.9,493,280.9,464l-31.1-64.5H205.4z"/>
	</g>
	<g>
		<polygon class="st2" points="155.1,505.9 155.1,588.9 284.7,588.9 284.7,497 		"/>
		<polygon class="st3" points="155.1,505.9 155.1,588.9 284.7,588.9 284.7,497 		"/>
		<polygon class="st2" points="163.1,505.4 155.1,505.9 155.1,588.9 163.1,588.9 		"/>
		<polygon class="st2" points="277.4,497.5 277.4,588.9 284.7,588.9 284.7,497 		"/>
		<polygon class="st2" points="155.1,505.9 155.1,512.9 284.7,503.9 284.7,497 		"/>
		<polygon class="st2" points="155.1,530.1 155.1,534.9 284.7,525.9 284.7,521.1 		"/>
		<polygon class="st0" points="199.7,588.9 240.2,588.9 240.2,535.2 199.7,538 		"/>
		<polygon class="st4" points="335.2,505.9 335.2,588.9 284.7,588.9 284.7,497 		"/>
		<polygon class="st1" points="335.2,505.9 335.2,588.9 328.4,588.9 328.5,504.7 		"/>
		<polygon class="st1" points="284.7,497 284.7,588.9 291.8,588.9 291.8,498.2 		"/>
		<polygon class="st1" points="284.7,497 284.7,504.6 335.2,513.6 335.2,505.9 		"/>
		<polygon class="st1" points="335.2,528.6 335.2,533.3 284.7,526.2 284.7,521.5 		"/>
	</g>
	<g>
		<rect x="134.4" y="569.4" class="st1" width="4.8" height="25.2"/>
		<rect x="151.2" y="568.5" class="st1" width="4.8" height="25.2"/>
		<rect x="168" y="567.6" class="st1" width="4.8" height="25.2"/>
		<rect x="184.9" y="566.7" class="st1" width="4.8" height="25.2"/>
		<rect x="201.7" y="565.8" class="st1" width="4.8" height="25.2"/>
		<rect x="218.5" y="564.9" class="st1" width="4.8" height="25.2"/>
		<rect x="235.4" y="564" class="st1" width="4.8" height="25.2"/>
		<rect x="252.2" y="563.1" class="st1" width="4.8" height="25.2"/>
		<g>
			<rect x="269" y="562.2" class="st1" width="4.8" height="25.2"/>
			<rect x="285.5" y="563.6" class="st1" width="4.8" height="25.2"/>
			<rect x="302" y="564.9" class="st1" width="4.8" height="25.2"/>
			<rect x="318.5" y="566.3" class="st1" width="4.8" height="25.2"/>
			<rect x="334.9" y="567.6" class="st1" width="4.8" height="25.2"/>
			<rect x="351.4" y="568.9" class="st1" width="4.8" height="25.2"/>
		</g>
		<polygon class="st2" points="271.8,556.7 359.1,566.9 359.1,574.1 271.8,563.8 		"/>
		<polygon class="st2" points="271.8,581.2 359.1,591.5 359.1,598.6 271.8,588.4 		"/>
		<polygon class="st2" points="271.9,556.8 122.2,566.1 122.2,573.2 271.9,563.9 		"/>
		<polygon class="st2" points="271.9,581.3 122.2,590.6 122.2,597.8 271.9,588.4 		"/>
	</g>
	<path class="st0" d="M0.6,309.5c0,0,42.5,65.6,158.1,65.3h167.5c0,0,100.2-5.4,132.2-59.8l-196.9-31.5
		C261.5,283.5,59.6,340.5,0.6,309.5z"/>
	
		<rect x="223" y="197.3" transform="matrix(-1 -1.224647e-16 1.224647e-16 -1 475.5334 412.0137)" class="st1" width="29.5" height="17.5"/>
	<rect x="205.8" y="214.6" class="st0" width="64" height="25.6"/>
	<g>
		<path class="st1" d="M458.4,315c-43.4,46.7-177.6-10.4-177.6-10.4L249.8,240h20.4C367.3,291.7,458.4,315,458.4,315z"/>
		<path class="st2" d="M205.4,240c-7.3,4.6-124.3,78.3-204.8,69.4l0,0c72.9,39.2,238.3,24.2,280.3-4.9L249.8,240H205.4z"/>
	</g>
	<g>
		<polygon class="st1" points="241.6,15.4 234.3,15.4 231.1,198.1 244,198.1 		"/>
		<g>
			<rect x="220.1" y="177.8" class="st2" width="35" height="7.9"/>
			<rect x="220.1" y="161.4" class="st2" width="35" height="7.9"/>
			<rect x="220.1" y="145" class="st2" width="35" height="7.9"/>
			<rect x="220.1" y="128.6" class="st2" width="35" height="7.9"/>
			<rect x="220.1" y="112.3" class="st2" width="35" height="7.9"/>
			<rect x="220.1" y="95.9" class="st2" width="35" height="7.9"/>
			<rect x="220.1" y="79.5" class="st2" width="35" height="7.9"/>
		</g>
		<path class="st2" d="M238.1,0.6h-1c-3.9,0-7.1,3.2-7.1,7.1v5.7c0,3.9,3.2,7.1,7.1,7.1h1c3.9,0,7.1-3.2,7.1-7.1V7.7
			C245.1,3.8,242,0.6,238.1,0.6z"/>
		<path class="st2" d="M237.6,33.8L237.6,33.8c-4.7,0-8.5,3.8-8.5,8.4v18c0,4.7,3.8,8.4,8.4,8.4h0.1c4.7,0,8.4-3.8,8.4-8.4v-18
			C246,37.6,242.3,33.8,237.6,33.8z"/>
	</g>
	<g>
		<polygon class="st2" points="155.1,346.5 155.1,429.5 284.7,429.5 284.7,337.6 		"/>
		<polygon class="st3" points="155.1,346.5 155.1,429.5 284.7,429.5 284.7,337.6 		"/>
		<polygon class="st2" points="163.1,346 155.1,346.5 155.1,429.5 163.1,429.5 		"/>
		<polygon class="st2" points="277.4,338.1 277.4,429.5 284.7,429.5 284.7,337.6 		"/>
		<polygon class="st2" points="155.1,346.5 155.1,353.5 284.7,344.5 284.7,337.6 		"/>
		<polygon class="st2" points="155.1,370.7 155.1,375.5 284.7,366.5 284.7,361.7 		"/>
		<polygon class="st2" points="155.1,370.7 155.1,375.5 284.7,366.5 284.7,361.7 		"/>
		<polygon class="st0" points="199.7,429.5 240.2,429.5 240.2,375.8 199.7,378.6 		"/>
		<polygon class="st4" points="335.2,346.5 335.2,429.5 284.7,429.5 284.7,337.6 		"/>
		<polygon class="st1" points="335.2,346.5 335.2,429.5 328.4,429.5 328.5,345.4 		"/>
		<polygon class="st1" points="284.7,337.6 284.7,429.5 291.8,429.5 291.8,338.8 		"/>
		<polygon class="st1" points="284.7,337.6 284.7,345.2 335.2,354.2 335.2,346.5 		"/>
		<polygon class="st1" points="335.2,369.2 335.2,373.9 284.7,366.9 284.7,362.1 		"/>
	</g>
	<g>
		<rect x="134.4" y="410" class="st1" width="4.8" height="25.2"/>
		<rect x="151.2" y="409.1" class="st1" width="4.8" height="25.2"/>
		<rect x="168" y="408.2" class="st1" width="4.8" height="25.2"/>
		<rect x="184.9" y="407.3" class="st1" width="4.8" height="25.2"/>
		<rect x="201.7" y="406.4" class="st1" width="4.8" height="25.2"/>
		<rect x="218.5" y="405.5" class="st1" width="4.8" height="25.2"/>
		<rect x="235.4" y="404.6" class="st1" width="4.8" height="25.2"/>
		<rect x="252.2" y="403.7" class="st1" width="4.8" height="25.2"/>
		<g>
			<rect x="269" y="402.9" class="st1" width="4.8" height="25.2"/>
			<rect x="285.5" y="404.2" class="st1" width="4.8" height="25.2"/>
			<rect x="302" y="405.5" class="st1" width="4.8" height="25.2"/>
			<rect x="318.5" y="406.9" class="st1" width="4.8" height="25.2"/>
			<rect x="334.9" y="408.2" class="st1" width="4.8" height="25.2"/>
			<rect x="351.4" y="409.6" class="st1" width="4.8" height="25.2"/>
		</g>
		<polygon class="st2" points="271.8,397.3 359.1,407.5 359.1,414.7 271.8,404.4 		"/>
		<polygon class="st2" points="271.8,421.8 359.1,432.1 359.1,439.2 271.8,429 		"/>
		<polygon class="st2" points="271.9,397.4 122.2,406.7 122.2,413.8 271.9,404.5 		"/>
		<polygon class="st2" points="271.9,421.9 122.2,431.2 122.2,438.4 271.9,429 		"/>
	</g>
</g>
</svg>
