<?xml version="1.0" encoding="utf-8"?>
<!-- Generator: Adobe Illustrator 27.9.5, SVG Export Plug-In . SVG Version: 9.03 Build 54986)  -->
<svg version="1.1" id="Calque_1" xmlns="http://www.w3.org/2000/svg" xmlns:xlink="http://www.w3.org/1999/xlink" x="0px" y="0px"
	 viewBox="0 0 3840 508.8" style="enable-background:new 0 0 3840 508.8;" xml:space="preserve">
<style type="text/css">
	.st0{fill:#E2DCC0;}
</style>
<g>
	<g>
		<path class="st0" d="M3797.9,181.6c-76.8,15.4-153.3,53.8-231.8,66.4l-1.8-42.3c4-0.6,8-1.4,11.6-2.4c6.7-1.8,10.3-8.3,11.9-12.5
			c-7.9,1.7-15.9,3-23.9,4l-0.4-8.9c1.2-0.3,2.4-0.5,3.5-0.8c5.6-1.5,8.6-6.9,9.9-10.4l0,0c0,0,2.1-0.6,2.3-0.7
			c3.5-0.8,13.6-17.6,13.8-17.8c-0.1,0-5,1.7-14.1,3.8c-35.9,8.2-73.2,8.2-109.1,0c-9.1-2.1-14-3.7-14.1-3.8
			c0.1,0.2,10.3,17.1,13.8,17.8c0.2,0,0.4,0.1,0.6,0.1c1.1,0.2,2.2,0.5,3.3,0.7c1.4,3.5,4.3,8.7,9.8,10.2c1.1,0.3,2.3,0.6,3.5,0.8
			l-0.4,8.8c-7.6-1-15.2-2.3-22.7-3.8c1.6,4.2,5.1,10.7,11.9,12.5c3.2,0.9,6.8,1.6,10.4,2.2l-1.9,44.3
			c-84.6-12-159.5-68.8-241.5-90.9l-3.2-73.1c6.4-1,12.6-2.2,18.3-3.7c10.7-2.8,16.2-13.1,18.8-19.7c-12.6,2.6-25.2,4.7-37.9,6.3
			l-0.6-14.1c1.9-0.4,3.7-0.8,5.5-1.3c8.9-2.4,13.5-10.9,15.7-16.5l0,0c0,0,3.3-1,3.6-1c5.5-1.2,21.6-27.9,21.8-28.3
			c-0.2,0.1-8.2,2.8-23.2,6.2c-56.3,12.7-114.7,12.7-171,0c-15-3.4-23.1-6.1-23.2-6.2c0.2,0.3,16.3,27,21.8,28.3
			c0.3,0.1,0.6,0.1,1,0.2c1.8,0.4,3.5,0.8,5.3,1.1c2.2,5.6,6.8,13.8,15.6,16.2c1.8,0.5,3.6,0.9,5.5,1.3l-0.6,13.9
			c-12-1.6-24-3.6-36-6.1c2.6,6.7,8.1,16.9,18.8,19.7c5.1,1.4,10.7,2.5,16.4,3.4l-3.2,74.2c-103.6,27.6-201.5,103.2-306.3,81.5
			c-60.1-12.4-115.7-56.5-176-45.5c-36.9,6.7-67.2,33.2-100.6,50l-1.8-41.4c5.1-0.8,10-1.8,14.6-3c8.5-2.2,12.9-10.4,14.9-15.7
			c-10,2.1-20,3.8-30.1,5l-0.5-11.2c1.5-0.3,3-0.7,4.4-1c7.1-1.9,10.8-8.7,12.5-13.1l0,0c0,0,2.6-0.8,2.9-0.8
			c4.4-1,17.2-22.2,17.3-22.5c-0.1,0-6.3,2.1-17.7,4.7c-45.2,10.3-92.1,10.3-137.3,0c-11.4-2.6-17.6-4.7-17.7-4.7
			c0.1,0.2,12.9,21.5,17.3,22.5c0.3,0.1,0.5,0.1,0.8,0.2c1.4,0.3,2.8,0.6,4.2,0.9c1.7,4.4,5.4,11,12.4,12.8c1.4,0.4,2.9,0.7,4.4,1
			l-0.5,11c-9.6-1.2-19.1-2.9-28.6-4.8c2,5.3,6.5,13.4,14.9,15.7c4.1,1.1,8.5,2,13.1,2.7l-2,46c-32.6-12.8-63.7-35.4-94.4-53.3
			c-106.2-61.9-241.1-71.9-355.3-26.5c-0.2,0.1-0.4,0.2-0.6,0.2c-35.8,14.3-75.5,14.3-111.3,0c-0.2-0.1-0.4-0.2-0.6-0.2
			c-25.3-10.1-51.7-17.4-78.5-22.1l-3-70.2c5.7-0.9,11.3-2.1,16.4-3.4c10.7-2.8,16.2-13.1,18.8-19.7c-11.9,2.5-23.9,4.5-36,6.1
			l-0.6-13.9c1.9-0.4,3.7-0.8,5.5-1.3c8.8-2.3,13.4-10.6,15.6-16.2c1.8-0.4,3.5-0.7,5.3-1.1c0.3-0.1,0.6-0.1,1-0.2
			c5.5-1.2,21.6-27.9,21.8-28.3c-0.2,0.1-8.2,2.8-23.2,6.2c-56.3,12.7-114.7,12.7-171,0c-15-3.4-23.1-6.1-23.2-6.2
			c0.2,0.3,16.3,27,21.8,28.3c0.3,0.1,3.6,1,3.6,1l0,0c2.1,5.6,6.8,14.1,15.7,16.5c1.8,0.5,3.6,0.9,5.5,1.3l-0.6,14.1
			c-12.7-1.6-25.3-3.7-37.9-6.3c2.6,6.7,8.1,16.9,18.8,19.7c5.7,1.5,11.9,2.7,18.3,3.7l-2.9,68c-51.4,7.4-101.5,24.3-146.4,50.4
			c-30.7,17.9-61.8,40.5-94.4,53.3l-2-46c4.6-0.7,9-1.6,13.1-2.7c8.5-2.2,12.9-10.4,14.9-15.7c-9.5,2-19,3.6-28.6,4.8l-0.5-11
			c1.5-0.3,3-0.7,4.4-1c7-1.8,10.6-8.4,12.4-12.8c1.4-0.3,2.8-0.6,4.2-0.9c0.3-0.1,0.5-0.1,0.8-0.2c4.4-1,17.2-22.2,17.3-22.5
			c-0.1,0-6.3,2.1-17.7,4.7c-45.2,10.3-92.1,10.3-137.3,0c-11.4-2.6-17.6-4.7-17.7-4.7c0.1,0.2,12.9,21.5,17.3,22.5
			c0.3,0.1,2.9,0.8,2.9,0.8l0,0c1.7,4.4,5.4,11.2,12.5,13.1c1.4,0.4,2.9,0.7,4.4,1l-0.5,11.2c-10.1-1.3-20.1-2.9-30.1-5
			c2,5.3,6.5,13.4,14.9,15.7c4.5,1.2,9.5,2.2,14.6,3l-1.8,41.4c-33.4-16.8-63.7-43.3-100.6-50c-60.3-11-116,33.1-176,45.5
			c-104.8,21.7-202.7-53.9-306.3-81.5l-3.2-74.2c5.7-0.9,11.3-2.1,16.4-3.4c10.7-2.8,16.2-13.1,18.8-19.7c-11.9,2.5-23.9,4.5-36,6.1
			l-0.6-13.9c1.9-0.4,3.7-0.8,5.5-1.3c8.8-2.3,13.4-10.6,15.6-16.2c1.8-0.4,3.5-0.7,5.3-1.1c0.3-0.1,0.6-0.1,1-0.2
			c5.5-1.2,21.6-27.9,21.8-28.3c-0.2,0.1-8.2,2.8-23.2,6.2c-56.3,12.7-114.7,12.7-171,0c-15-3.4-23.1-6.1-23.2-6.2
			c0.2,0.3,16.3,27,21.8,28.3c0.3,0.1,3.6,1,3.6,1l0,0c2.1,5.6,6.8,14.1,15.7,16.5c1.8,0.5,3.6,0.9,5.5,1.3l-0.6,14.1
			c-12.7-1.6-25.3-3.7-37.9-6.3c2.6,6.7,8.1,16.9,18.8,19.7c5.7,1.5,11.9,2.7,18.3,3.7l-3.2,73.1c-82,22.1-156.9,78.9-241.5,90.9
			l-1.9-44.3c3.6-0.6,7.1-1.3,10.4-2.2c6.7-1.8,10.3-8.3,11.9-12.5c-7.5,1.6-15.1,2.8-22.7,3.8l-0.4-8.8c1.2-0.3,2.4-0.5,3.5-0.8
			c5.5-1.5,8.4-6.7,9.8-10.2c1.1-0.2,2.2-0.5,3.3-0.7c0.2,0,0.4-0.1,0.6-0.1c3.5-0.8,13.6-17.6,13.8-17.8c-0.1,0-5,1.7-14.1,3.8
			c-35.9,8.2-73.2,8.2-109.1,0c-9.1-2.1-14-3.7-14.1-3.8c0.1,0.2,10.3,17.1,13.8,17.8c0.2,0,2.3,0.7,2.3,0.7l0,0
			c1.3,3.5,4.3,8.9,9.9,10.4c1.1,0.3,2.3,0.6,3.5,0.8l-0.4,8.9c-8-1-16-2.3-23.9-4c1.6,4.2,5.1,10.7,11.9,12.5
			c3.6,1,7.5,1.7,11.6,2.4l-1.8,42.3c-78.4-12.6-155-51-231.8-66.4c-13.9-2.8-27.9-5.2-42.1-7v334.1h1920h1920v-334
			C3825.9,176.4,3811.8,178.8,3797.9,181.6z M657.2,59.8h11.5c9.5-0.2,23.8-0.7,37.9-2.4L706,70.5c-28.6,2.6-57.5,2.7-86.1,0.2
			l-0.6-13.3C633.4,59.1,647.7,59.6,657.2,59.8z M311.3,189.3h7.3c6-0.1,15-0.4,23.9-1.5l-0.4,8.3c-18.1,1.7-36.3,1.7-54.4,0.1
			l-0.4-8.4C296.3,188.8,305.3,189.2,311.3,189.3z M290.1,250.3l-1.9-43.1c8.2,0.7,16.1,1,21.7,1.1h8.7c5.9-0.1,14.3-0.4,23-1.2
			l-1.9,44.4C323.1,252.7,306.6,252.1,290.1,250.3z M654.3,150.1c-10.4,0.3-20.6,1.4-30.8,3.1l-2.8-65c13.1,1.2,25.5,1.6,34.4,1.8
			h13.8c9.4-0.2,22.6-0.6,36.4-1.9l-2.9,65.9C686.6,151.1,670.5,149.6,654.3,150.1z M1358,183.7h9.2c7.6-0.1,18.9-0.6,30.1-1.9
			l-0.5,10.4c-22.8,2.1-45.7,2.1-68.4,0.1l-0.5-10.5C1339.1,183.1,1350.5,183.5,1358,183.7z M1349.9,258.9c-6.5-1-12.7-2.6-18.8-4.7
			l-2.1-47.9c10.4,0.9,20.2,1.3,27.3,1.4h11c7.5-0.1,18-0.5,28.9-1.5l-2.2,50.4C1379.7,260,1365,261.2,1349.9,258.9z M1714.2,52.3
			h11.5c9.5-0.2,23.8-0.7,37.9-2.4L1763,63c-28.6,2.6-57.5,2.7-86.1,0.2l-0.6-13.3C1690.4,51.6,1704.7,52.2,1714.2,52.3z
			 M1680.4,143.5l-2.7-62.8c13.1,1.2,25.5,1.6,34.4,1.8h13.8c9.4-0.2,22.6-0.6,36.4-1.9l-2.8,64
			C1733.3,141.7,1706.7,141.3,1680.4,143.5z M2472.8,183.7h9.2c7.6-0.1,18.9-0.6,30.1-1.9l-0.5,10.5c-22.8,2-45.7,1.9-68.4-0.1
			l-0.5-10.4C2453.9,183.1,2465.2,183.5,2472.8,183.7z M2445.9,256.5l-2.2-50.4c10.9,1,21.4,1.4,28.9,1.5h11
			c7.1-0.1,17-0.5,27.3-1.4l-2.1,47.9c-6.1,2.1-12.3,3.7-18.8,4.7C2475,261.2,2460.3,260,2445.9,256.5z M3521.4,189.3h7.3
			c6-0.1,15-0.4,23.9-1.5l-0.4,8.4c-18.1,1.6-36.3,1.5-54.4-0.1l-0.4-8.3C3506.4,188.8,3515.4,189.2,3521.4,189.3z M3171.2,59.8
			h11.5c9.5-0.2,23.8-0.7,37.9-2.4l-0.6,13.3c-28.7,2.5-57.5,2.5-86.1-0.2l-0.6-13.1C3147.5,59.1,3161.7,59.6,3171.2,59.8z
			 M3137.6,153.9l-2.9-65.9c13.8,1.3,27,1.8,36.4,1.9h13.8c9-0.1,21.4-0.6,34.4-1.8l-2.8,65c-10.1-1.7-20.4-2.8-30.8-3.1
			C3169.5,149.6,3153.4,151.1,3137.6,153.9z M3500.3,251.5l-1.9-44.4c8.7,0.8,17,1.1,23,1.2h8.7c5.7-0.1,13.5-0.4,21.7-1.1
			l-1.9,43.1C3533.4,252.1,3516.9,252.7,3500.3,251.5z"/>
	</g>
</g>
</svg>
