<?xml version="1.0" encoding="utf-8"?>
<!-- Generator: Adobe Illustrator 27.9.4, SVG Export Plug-In . SVG Version: 9.03 Build 54784)  -->
<svg version="1.1" id="Calque_1" xmlns="http://www.w3.org/2000/svg" xmlns:xlink="http://www.w3.org/1999/xlink" x="0px" y="0px"
	 viewBox="0 0 24.8 28.4" style="enable-background:new 0 0 24.8 28.4;" xml:space="preserve">
<style type="text/css">
	.st0{fill-rule:evenodd;clip-rule:evenodd;fill:#FFFFFF;}
</style>
<g>
	<path class="st0" d="M9.2,1.6c-1.7,0.9-3,1.6-3,1.7s4.1,2.1,4.2,2.1s0.5-0.2,1.1-0.5l0.9-0.5l1,0.5l1,0.5l1.7-0.8
		c2.5-1.1,2.8-1.3,2.7-1.3c-0.1-0.1-1-0.5-3.4-1.8c-1.2-0.5-2.3-1.2-2.6-1.3C12.6,0.1,12.4,0,12.4,0C12.3,0,10.9,0.7,9.2,1.6
		L9.2,1.6z M1.8,5.4l-1.7,1v4c0,2.2,0,4,0.1,4c0,0,0.9-0.4,1.9-0.8L4,12.8V8.5L4.8,9c0.7,0.3,1.4,0.7,2.1,1.1l1.2,0.7l0.5-0.2
		c0.3-0.2,0.7-0.3,1-0.5C9.9,10,10.5,9.7,11,9.5S12,9,12.1,9c0.1-0.1-1-0.7-4.1-2.2C5.8,5.5,3.8,4.5,3.7,4.5
		C3.7,4.5,2.8,4.9,1.8,5.4L1.8,5.4z M19.1,5.7c-1.2,0.5-2.2,1-2.2,1s0.7,0.4,1.5,0.9c0.8,0.4,1.5,0.8,1.5,0.9c0,0-0.7,0.4-1.6,0.8
		c-0.9,0.4-3.1,1.4-4.9,2.2l-6.1,2.7c-1.5,0.7-2.9,1.3-3.1,1.4c-3,1.4-3.8,1.7-4,1.8c-0.1,0.1-0.1,0.5-0.2,2.4v2.4L1.6,23l1.6,0.8
		l2.2-1c1.2-0.5,2.2-1,2.2-1s-0.2-0.2-0.5-0.3c-0.3-0.2-0.9-0.5-1.3-0.8c-0.4-0.2-0.8-0.5-0.9-0.5s-0.2-0.1-0.2-0.1s1-0.5,2.1-1
		c2.3-1,4-1.8,7.8-3.5c1.7-0.8,3.4-1.5,5-2.3c1.5-0.7,3.2-1.4,3.8-1.7l1.1-0.5V8.7V6.3l-1.6-0.8C22,5,21.3,4.7,21.2,4.7
		C21.4,4.7,20.3,5.2,19.1,5.7L19.1,5.7z M24.2,14.3c-0.2,0.1-0.7,0.3-1,0.5c-0.3,0.1-1,0.4-1.4,0.6L21,15.8v2.1
		c0,1.1-0.1,2.1-0.1,2.1c-0.1,0-1.6-0.8-3.1-1.6c-1.1-0.6-1.2-0.6-1.4-0.5c-0.1,0.1-1,0.5-2,0.9c-0.9,0.4-1.7,0.8-1.8,0.8
		c0,0,1.8,1,4.2,2.3l4.2,2.2l1.8-0.9c1-0.5,1.8-1,1.9-1c0.1-0.1,0.1-8,0-7.9C24.6,14.1,24.4,14.2,24.2,14.3L24.2,14.3z M14.2,23.5
		c-0.3,0.1-0.6,0.3-0.9,0.4c-0.9,0.4-0.8,0.4-1.9-0.1c-0.7-0.4-1.1-0.5-1.2-0.4c-0.1,0-1,0.4-2,0.9c-1.1,0.4-1.9,0.7-2,0.7
		c-0.4,0,0.3,0.4,3,1.8l3.2,1.6l1.3-0.7c0.7-0.4,2.2-1.1,3.3-1.6s1.9-1,1.9-1s-0.9-0.5-2-1l-2-1L14.2,23.5z"/>
</g>
</svg>
