<?xml version="1.0" encoding="utf-8"?>
<!-- Generator: Adobe Illustrator 27.9.4, SVG Export Plug-In . SVG Version: 9.03 Build 54784)  -->
<svg version="1.1" id="Calque_1" xmlns="http://www.w3.org/2000/svg" xmlns:xlink="http://www.w3.org/1999/xlink" x="0px" y="0px"
	 viewBox="0 0 30 30" style="enable-background:new 0 0 30 30;" xml:space="preserve">
<style type="text/css">
	.st0{fill:#FFFFFF;}
</style>
<g id="Calque_2_00000160154986936572858350000012096737285530783639_">
	<path class="st0" d="M5.4,14.8c0,0,8.1-3.3,10.9-4.5c1.1-0.5,4.7-2,4.7-2s1.7-0.7,1.5,0.9c0,0.7-0.4,3-0.8,5.4
		c-0.6,3.5-1.2,7.4-1.2,7.4s-0.1,1.1-0.9,1.3c-0.8,0.2-2.1-0.7-2.3-0.8c-0.2-0.1-3.5-2.2-4.7-3.3c-0.3-0.3-0.7-0.8,0-1.5
		c1.7-1.5,3.7-3.5,4.9-4.7c0.6-0.6,1.1-1.9-1.2-0.3C13,15,9.7,17.2,9.7,17.2s-0.7,0.5-2.2,0c-1.4-0.4-3-1-3-1S3.4,15.6,5.4,14.8
		L5.4,14.8z"/>
</g>
</svg>
