<?xml version="1.0" encoding="utf-8"?>
<!-- Generator: Adobe Illustrator 27.9.5, SVG Export Plug-In . SVG Version: 9.03 Build 54986)  -->
<svg version="1.1" id="Calque_1" xmlns="http://www.w3.org/2000/svg" xmlns:xlink="http://www.w3.org/1999/xlink" x="0px" y="0px"
	 viewBox="0 0 703.6 703.6" style="enable-background:new 0 0 703.6 703.6;" xml:space="preserve">
<style type="text/css">
	.st0{fill:none;stroke:#FCA644;stroke-width:0.3559;stroke-miterlimit:10;}
	.st1{fill:url(#SVGID_1_);}
</style>
<g>
	<line class="st0" x1="351.8" y1="351.8" x2="351.8" y2="0"/>
	<line class="st0" x1="351.8" y1="351.8" x2="315" y2="1.9"/>
	<line class="st0" x1="351.8" y1="351.8" x2="278.6" y2="7.7"/>
	<line class="st0" x1="351.8" y1="351.8" x2="243.1" y2="17.2"/>
	<line class="st0" x1="351.8" y1="351.8" x2="208.7" y2="30.4"/>
	<line class="st0" x1="351.8" y1="351.8" x2="175.9" y2="47.1"/>
	<line class="st0" x1="351.8" y1="351.8" x2="134" y2="52.3"/>
	<line class="st0" x1="351.8" y1="351.8" x2="116.4" y2="90.4"/>
	<line class="st0" x1="351.8" y1="351.8" x2="90.4" y2="116.4"/>
	<line class="st0" x1="351.8" y1="351.8" x2="67.2" y2="145"/>
	<line class="st0" x1="351.8" y1="351.8" x2="47.1" y2="175.9"/>
	<line class="st0" x1="351.8" y1="351.8" x2="30.4" y2="208.7"/>
	<line class="st0" x1="351.8" y1="351.8" x2="17.2" y2="243.1"/>
	<line class="st0" x1="351.8" y1="351.8" x2="7.7" y2="278.6"/>
	<line class="st0" x1="351.8" y1="351.8" x2="1.9" y2="315"/>
	<line class="st0" x1="351.8" y1="351.8" x2="0" y2="351.8"/>
	<line class="st0" x1="351.8" y1="351.8" x2="1.9" y2="388.6"/>
	<line class="st0" x1="351.8" y1="351.8" x2="7.7" y2="424.9"/>
	<line class="st0" x1="351.8" y1="351.8" x2="17.2" y2="460.5"/>
	<line class="st0" x1="351.8" y1="351.8" x2="30.4" y2="494.9"/>
	<line class="st0" x1="351.8" y1="351.8" x2="47.1" y2="527.7"/>
	<line class="st0" x1="351.8" y1="351.8" x2="67.2" y2="558.6"/>
	<line class="st0" x1="351.8" y1="351.8" x2="90.4" y2="587.2"/>
	<line class="st0" x1="351.8" y1="351.8" x2="116.4" y2="613.2"/>
	<line class="st0" x1="351.8" y1="351.8" x2="133.3" y2="652.5"/>
	<line class="st0" x1="351.8" y1="351.8" x2="175.9" y2="656.4"/>
	<line class="st0" x1="351.8" y1="351.8" x2="208.7" y2="673.2"/>
	<line class="st0" x1="351.8" y1="351.8" x2="243.1" y2="686.4"/>
	<line class="st0" x1="351.8" y1="351.8" x2="278.6" y2="695.9"/>
	<line class="st0" x1="351.8" y1="351.8" x2="315" y2="701.6"/>
	<line class="st0" x1="351.8" y1="351.8" x2="351.8" y2="703.6"/>
	<line class="st0" x1="351.8" y1="351.8" x2="388.6" y2="701.6"/>
	<line class="st0" x1="351.8" y1="351.8" x2="424.9" y2="695.9"/>
	<line class="st0" x1="351.8" y1="351.8" x2="460.5" y2="686.4"/>
	<line class="st0" x1="351.8" y1="351.8" x2="494.9" y2="673.2"/>
	<line class="st0" x1="351.8" y1="351.8" x2="527.7" y2="656.4"/>
	<line class="st0" x1="351.8" y1="351.8" x2="570.3" y2="652.5"/>
	<line class="st0" x1="351.8" y1="351.8" x2="587.2" y2="613.2"/>
	<line class="st0" x1="351.8" y1="351.8" x2="613.2" y2="587.2"/>
	<line class="st0" x1="351.8" y1="351.8" x2="636.4" y2="558.6"/>
	<line class="st0" x1="351.8" y1="351.8" x2="656.4" y2="527.7"/>
	<line class="st0" x1="351.8" y1="351.8" x2="673.2" y2="494.9"/>
	<line class="st0" x1="351.8" y1="351.8" x2="686.4" y2="460.5"/>
	<line class="st0" x1="351.8" y1="351.8" x2="695.9" y2="424.9"/>
	<line class="st0" x1="351.8" y1="351.8" x2="701.6" y2="388.6"/>
	<line class="st0" x1="351.8" y1="351.8" x2="703.6" y2="351.8"/>
	<line class="st0" x1="351.8" y1="351.8" x2="701.6" y2="315"/>
	<line class="st0" x1="351.8" y1="351.8" x2="695.9" y2="278.6"/>
	<line class="st0" x1="351.8" y1="351.8" x2="686.4" y2="243.1"/>
	<line class="st0" x1="351.8" y1="351.8" x2="673.2" y2="208.7"/>
	<line class="st0" x1="351.8" y1="351.8" x2="656.4" y2="175.9"/>
	<line class="st0" x1="351.8" y1="351.8" x2="636.4" y2="145"/>
	<line class="st0" x1="351.8" y1="351.8" x2="613.2" y2="116.4"/>
	<line class="st0" x1="351.8" y1="351.8" x2="587.2" y2="90.4"/>
	<line class="st0" x1="351.8" y1="351.8" x2="569.4" y2="52.3"/>
	<line class="st0" x1="351.8" y1="351.8" x2="527.7" y2="47.1"/>
	<line class="st0" x1="351.8" y1="351.8" x2="494.9" y2="30.4"/>
	<line class="st0" x1="351.8" y1="351.8" x2="460.5" y2="17.2"/>
	<line class="st0" x1="351.8" y1="351.8" x2="424.9" y2="7.7"/>
	<line class="st0" x1="351.8" y1="351.8" x2="388.6" y2="1.9"/>
</g>
<radialGradient id="SVGID_1_" cx="352.0859" cy="350.647" r="69.1905" gradientUnits="userSpaceOnUse">
	<stop  offset="0.3816" style="stop-color:#FFF3DB"/>
	<stop  offset="1" style="stop-color:#FFF3DB;stop-opacity:0"/>
</radialGradient>
<ellipse class="st1" cx="352.1" cy="350.6" rx="51.7" ry="83.1"/>
</svg>
