<?xml version="1.0" encoding="utf-8"?>
<!-- Generator: Adobe Illustrator 27.9.5, SVG Export Plug-In . SVG Version: 9.03 Build 54986)  -->
<svg version="1.1" id="Calque_1" xmlns="http://www.w3.org/2000/svg" xmlns:xlink="http://www.w3.org/1999/xlink" x="0px" y="0px"
	 viewBox="0 0 30 30" style="enable-background:new 0 0 30 30;" xml:space="preserve">
<style type="text/css">
	.st0{fill:#FFFFFF;}
	.st1{fill-rule:evenodd;clip-rule:evenodd;fill:#FFFFFF;}
</style>
<g>
	<path class="st0" d="M11,4.9c-0.3,0-0.3-0.1-0.2-0.1c0.3,0,0.9,0,1.3,0.1c1,0.2,1.9,0.8,2.9,1.9l0.3,0.3L15.6,7
		c1.5-0.2,3.1,0,4.4,0.6c0.4,0.2,0.9,0.5,1,0.6c0,0,0.1,0.2,0.1,0.4c0.1,0.6,0,1.1-0.1,1.5c-0.1,0.2-0.1,0.3,0,0.4
		c0.1,0.1,0.2,0.2,0.4,0.2c0.3,0,0.7-0.5,0.8-1.3l0.1-0.3l0.1,0.1c0.7,0.8,1.3,1.9,1.3,2.6V12l-0.1,0c-0.2-0.3-0.4-0.5-0.7-0.7
		c-0.5-0.3-1-0.4-2.3-0.5c-1.2-0.1-1.9-0.2-2.5-0.4C17,10.1,16.4,9.6,15,7.8c-0.6-0.8-1-1.2-1.3-1.6C12.9,5.4,12,5,11,4.9z"/>
	<path class="st0" d="M21.3,6.6c0-0.5,0.1-0.9,0.2-1.2c0.1-0.1,0.1-0.2,0.1-0.2s0,0.1-0.1,0.2c-0.1,0.3-0.1,0.7,0,1.2
		c0.1,0.6,0.1,0.7,0.8,1.4c0.3,0.3,0.7,0.7,0.8,0.9l0.2,0.3L23.2,9c-0.3-0.3-1-0.8-1.1-0.9c-0.1-0.1-0.1,0-0.2,0
		c-0.1,0.1-0.1,0.1-0.1,0.5c0,0.6-0.1,1-0.3,1.4c-0.1,0.2-0.1,0.2,0-0.1c0.1-0.2,0.1-0.3,0.1-0.9c0-1.2-0.1-1.5-1-2
		c-0.2,0-0.6-0.2-0.8-0.3c-0.2-0.1-0.4-0.2-0.4-0.2s0.8,0.2,1.2,0.3C21.1,7,21.2,7,21.2,7C21.3,7.1,21.3,7,21.3,6.6z"/>
	<path class="st0" d="M11.6,8.7c-0.6-0.8-1-2-0.9-3V5.4h0.1c0.3,0,0.7,0.2,0.9,0.3c0.6,0.3,0.8,0.8,1,1.9C12.8,8,12.9,8.4,13,8.5
		c0.1,0.2,0.3,0.7,0.5,1c0.2,0.2,0.1,0.3-0.3,0.3C12.7,9.8,12,9.3,11.6,8.7z"/>
	<path class="st0" d="M20.6,14.7c-2.7-1.1-3.7-2.1-3.7-3.7c0-0.2,0-0.4,0-0.4s0.1,0.1,0.2,0.2c0.6,0.4,1.2,0.6,2.9,0.9
		c1,0.1,1.6,0.3,2.1,0.4c1.7,0.6,2.7,1.7,3,3.2c0.1,0.4,0,1.3-0.1,1.7c-0.1,0.3-0.4,1-0.4,1s0-0.1,0-0.2c0-0.6-0.3-1.1-0.8-1.6
		C23.2,15.8,22.4,15.4,20.6,14.7z"/>
	<path class="st0" d="M18.7,15.1c0-0.2-0.1-0.5-0.1-0.6l-0.1-0.2l0.1,0.1c0.2,0.2,0.3,0.5,0.4,0.8s0.1,0.3,0.1,0.8
		c0,0.4,0,0.5-0.1,0.7c-0.1,0.4-0.3,0.6-0.6,0.9c-0.5,0.5-1.1,0.8-2.1,0.9c-0.2,0-0.6,0.1-1,0.1c-1,0.1-1.7,0.2-2.3,0.4
		c-0.1,0-0.2,0.1-0.2,0c0,0,0.4-0.3,0.7-0.4c0.5-0.2,1-0.4,2.1-0.5c0.5-0.1,1.1-0.2,1.2-0.2C18.2,17.5,18.9,16.5,18.7,15.1z"/>
	<path class="st0" d="M19.9,17.4c-0.4-0.8-0.4-1.5-0.2-2.2c0-0.1,0.1-0.1,0.1-0.1s0.1,0,0.2,0.1c0.2,0.1,0.5,0.3,1.4,0.8
		c1.1,0.6,1.8,1.1,2.2,1.6c0.4,0.5,0.6,1,0.7,1.7c0.1,0.4,0,1.3-0.1,1.6c-0.3,1.2-1,2.1-2,2.7c-0.1,0.1-0.3,0.1-0.3,0.1
		s0-0.1,0.1-0.3c0.3-0.7,0.4-1.4,0.1-2.1c-0.2-0.5-0.5-1-1.1-2C20.3,18.1,20.1,17.8,19.9,17.4z"/>
	<path class="st0" d="M9.6,21.6c1-0.9,2.3-1.5,3.4-1.7c0.5-0.1,1.3,0,1.8,0.1c0.7,0.2,1.4,0.6,1.7,1.1S17,22,17.1,23
		c0.1,0.4,0.1,0.8,0.1,0.8c0.1,0.5,0.3,0.9,0.6,1.1c0.4,0.3,1.2,0.3,1.9,0.1c0.1,0,0.2-0.1,0.2-0.1s-0.3,0.3-0.6,0.4
		c-0.3,0.2-0.6,0.2-1,0.2c-0.7,0-1.2-0.3-1.7-1c-0.1-0.1-0.3-0.5-0.5-0.9c-0.5-1.1-0.7-1.5-1.3-1.8c-0.5-0.3-1.1-0.4-1.6-0.1
		c-0.6,0.3-0.8,1.1-0.4,1.6c0.2,0.2,0.5,0.4,0.8,0.4c0.5,0.1,1-0.3,1-0.8c0-0.3-0.1-0.5-0.5-0.7s-0.9,0-0.9,0.5
		c0,0.2,0.1,0.3,0.3,0.4c0.1,0.1,0.1,0.1,0,0c-0.4-0.1-0.5-0.6-0.2-0.9c0.4-0.4,1.2-0.2,1.5,0.3c0.1,0.2,0.1,0.7,0,0.9
		c-0.2,0.6-0.9,0.9-1.6,0.7c-0.5-0.1-0.6-0.2-1.2-0.8c-1-1-1.3-1.2-2.7-1.4H9L9.6,21.6z"/>
	<path class="st1" d="M12.2,11.7c-0.3,0.1-0.7,0.5-0.8,0.8c-0.1,0.2,0,0.6,0.1,0.7c0.1,0.2,0.3,0.2,0.7,0.2c0.8,0,1.4-0.3,1.5-0.7
		c0.1-0.3-0.2-0.8-0.6-1C12.8,11.7,12.4,11.7,12.2,11.7z M13.1,12.4c0.1-0.2,0.1-0.3-0.1-0.5c-0.4-0.2-0.9,0-0.9,0.3
		c0,0.2,0.3,0.4,0.6,0.4C12.7,12.7,13,12.5,13.1,12.4z"/>
	<path class="st0" d="M10.8,9.7c0.2,0.3,0.1,0.5-0.2,0.7c-0.2,0.1-0.6,0.2-0.8,0.2s-0.5-0.1-0.7-0.3C9,10.2,8.4,9.4,7.2,7.6
		c-0.5-0.8-1-1.5-1.3-2c0,0,0,0-0.1,0.1C6.1,6,6.5,6.8,7.1,7.9c1.1,1.9,1.4,2.6,1.4,2.7c0,0.2,0,0.3-0.3,0.5C7.8,11.5,7.7,12,7.5,13
		c0,1-0.4,1.8-1.5,3.1c-0.6,0.8-0.7,0.9-0.9,1.2c-0.2,0.4-0.3,0.6-0.3,1.1s0,0.9,0.2,1.4c0.1,0.4,0.3,0.7,0.7,1.3
		c0.3,0.5,0.5,0.9,0.5,1s0,0.1,0.5,0c1.2-0.3,2.2-0.7,2.7-1.3c0.3-0.4,0.4-0.6,0.4-1.1c0-0.3,0-0.4-0.1-0.6c-0.1-0.3-0.4-0.6-1-0.9
		c-0.7-0.5-1.1-0.9-1.2-1.5c-0.1-0.5,0-0.8,0.4-1.7s0.5-1.3,0.6-2.2c0-0.6,0.1-0.8,0.3-1s0.3-0.3,0.8-0.3c0.7-0.1,1.2-0.3,1.5-0.6
		s0.5-0.6,0.5-1V9.6l-0.2-0.2c-0.3-0.3-2.4-2.6-4.5-5C7,4.5,6.8,4.6,6.7,4.7C8.8,7.3,10.6,9.5,10.8,9.7z M6.6,19
		c-0.1,0.2-0.4,0.3-0.6,0.2c-0.1-0.1-0.1-0.2,0-0.4c0.1-0.2,0.1-0.2,0-0.3c-0.1,0-0.1-0.1-0.1-0.1c0-0.2,0.4-0.3,0.6-0.1
		C6.6,18.4,6.7,18.8,6.6,19z"/>
</g>
</svg>
